{"title":"A Horrible Way To Die 2010 DvDRip XviD Ac3 Feel-Free","uid":6659628,"size":1051716368,"categoryP":"video","categoryS":"movies","magnet":"?xt=urn:btih:ab38f4b6982e20297b8af18e5ca4f43f06d767f6&amp;dn=A+Horrible+Way+To+Die+2010+DvDRip+XviD+Ac3+Feel-Free&amp;tr=udp%3A%2F%2Ftracker.openbittorrent.com%3A80&amp;tr=udp%3A%2F%2Fopen.demonii.com%3A1337&amp;tr=udp%3A%2F%2Ftracker.coppersurfer.tk%3A6969&amp;tr=udp%3A%2F%2Fexodus.desync.com%3A6969","seeders":0,"leechers":0,"uploader":"hiest","files":-1,"time":1315470898,"description":"Full Credits To Feel Free :)\n\n ######## ######## ######## ##          ######## ########  ######## ######## \n ##       ##       ##       ##          ##       ##     ## ##       ##       \n ##       ##       ##       ##          ##       ##     ## ##       ##       \n ######   ######   ######   ##          ######   ########  ######   ######   \n ##       ##       ##       ##          ##       ##   ##   ##       ##       \n ##       ##       ##       ##          ##       ##    ##  ##       ##       \n ##       ######## ######## ########    ##       ##     ## ######## ########\n\n Genre:Horror | Thriller\n Language:English\n &lt;a href=&quot; http://www.imdb.com/title/tt1617620&quot; rel=&quot;nofollow&quot; target=&quot;_NEW&quot;&gt; http://www.imdb.com/title/tt1617620&lt;/a&gt;\n Source:DVD Thanks!\n\n Format : AVI\n Format/Info : Audio Video Interleave\n File size : 1 002 MiB\n Duration : 1h 27mn\n Overall bit rate : 1 606 Kbps\n\n Video\n ID : 0\n Format : MPEG-4 Visual\n Format profile : Advanced Simple@L5\n Format settings, BVOP : Yes\n Format settings, QPel : No\n Format settings, GMC : No warppoints\n Format settings, Matrix : Default (H.263)\n Codec ID : XVID\n Codec ID/Hint : XviD\n Duration : 1h 27mn\n Bit rate : 1 146 Kbps\n Width : 640 pixels\n Height : 360 pixels\n Display aspect ratio : 16:9\n Frame rate : 29.970 fps\n Color space : YUV\n Chroma subsampling : 4:2:0\n Bit depth : 8 bits\n Scan type : Progressive\n Bits/(Pixel*Frame) : 0.166\n Stream size : 715 MiB (71%)\n Writing library : XviD 1.2.1 (UTC 2008-12-04)\n\n Audio\n ID : 1\n Format : AC-3\n Format/Info : Audio Coding 3\n Mode extension : CM (complete main)\n Codec ID : 2000\n Duration : 1h 27mn\n Bit rate mode : Constant\n Bit rate : 448 Kbps\n Channel(s) : 6 channels\n Channel positions : Front: L C R, Side: L R, LFE\n Sampling rate : 48.0 KHz\n Bit depth : 16 bits\n Stream size : 280 MiB (28%)\n Alignment : Aligned on interleaves\n Interleave, duration : 33 ms (1.00 video frame)\n Interleave, preload duration : 512 ms\n\n\n Screen SHots:\n\n &lt;a href=&quot; http://www.pix2links.com/images/65751711133462878127.png&quot; rel=&quot;nofollow&quot; target=&quot;_NEW&quot;&gt; http://www.pix2links.com/images/65751711133462878127.png&lt;/a&gt;\n\n &lt;a href=&quot; http://www.pix2links.com/images/57026229933772595330.png&quot; rel=&quot;nofollow&quot; target=&quot;_NEW&quot;&gt; http://www.pix2links.com/images/57026229933772595330.png&lt;/a&gt;\n\n &lt;a href=&quot; http://www.pix2links.com/images/86475392217010089674.png&quot; rel=&quot;nofollow&quot; target=&quot;_NEW&quot;&gt; http://www.pix2links.com/images/86475392217010089674.png&lt;/a&gt;\n\n &lt;a href=&quot; http://www.pix2links.com/images/23675519599230123545.png&quot; rel=&quot;nofollow&quot; target=&quot;_NEW&quot;&gt; http://www.pix2links.com/images/23675519599230123545.png&lt;/a&gt;\n\n Plot:\n n escaped murderer is in pursuit of his ex-girlfriend, who has fled to start a \n new life in a small town.\n\n\nFull Credits To Feel Free :)\n\n ######## ######## ######## ##          ######## ########  ######## ######## \n ##       ##       ##       ##          ##       ##     ## ##       ##       \n ##       ##       ##       ##          ##       ##     ## ##       ##       \n ######   ######   ######   ##          ######   ########  ######   ######   \n ##       ##       ##       ##          ##       ##   ##   ##       ##       \n ##       ##       ##       ##          ##       ##    ##  ##       ##       \n ##       ######## ######## ########    ##       ##     ## ######## ########","torrent":{"xt":"urn:btih:ab38f4b6982e20297b8af18e5ca4f43f06d767f6","amp;dn":"A+Horrible+Way+To+Die+2010+DvDRip+XviD+Ac3+Feel-Free","amp;tr":["udp%3A%2F%2Ftracker.openbittorrent.com%3A80","udp%3A%2F%2Fopen.demonii.com%3A1337","udp%3A%2F%2Ftracker.coppersurfer.tk%3A6969","udp%3A%2F%2Fexodus.desync.com%3A6969"],"infoHash":"ab38f4b6982e20297b8af18e5ca4f43f06d767f6","infoHashBuffer":{"type":"Buffer","data":[171,56,244,182,152,46,32,41,123,138,241,142,92,164,244,63,6,215,103,246]},"announce":[],"urlList":[]}}